<svg width="60" height="72" viewBox="0 0 60 72" fill="none" xmlns="http://www.w3.org/2000/svg">
<rect x="4" width="50" height="45" rx="15" fill="#FCFCFC"/>
<path d="M6.29698 61.632C6.29698 62.0207 6.20531 62.3873 6.02198 62.732C5.83864 63.0767 5.54531 63.359 5.14198 63.579C4.73864 63.7917 4.22164 63.898 3.59098 63.898H2.20498V67H0.950977V59.355H3.59098C4.17764 59.355 4.67264 59.4577 5.07598 59.663C5.48664 59.861 5.79098 60.1323 5.98898 60.477C6.19431 60.8217 6.29698 61.2067 6.29698 61.632ZM3.59098 62.875C4.06764 62.875 4.42331 62.7687 4.65798 62.556C4.89264 62.336 5.00998 62.028 5.00998 61.632C5.00998 60.796 4.53698 60.378 3.59098 60.378H2.20498V62.875H3.59098ZM8.74697 61.819C8.9303 61.511 9.1723 61.2727 9.47297 61.104C9.78097 60.928 10.144 60.84 10.562 60.84V62.138H10.243C9.75164 62.138 9.37764 62.2627 9.12097 62.512C8.87164 62.7613 8.74697 63.194 8.74697 63.81V67H7.49297V60.939H8.74697V61.819ZM17.2696 63.821C17.2696 64.0483 17.255 64.2537 17.2256 64.437H12.5946C12.6313 64.921 12.811 65.3097 13.1336 65.603C13.4563 65.8963 13.8523 66.043 14.3216 66.043C14.9963 66.043 15.473 65.7607 15.7516 65.196H17.1046C16.9213 65.7533 16.5876 66.2117 16.1036 66.571C15.627 66.923 15.033 67.099 14.3216 67.099C13.7423 67.099 13.2216 66.9707 12.7596 66.714C12.305 66.45 11.9456 66.0833 11.6816 65.614C11.425 65.1373 11.2966 64.5873 11.2966 63.964C11.2966 63.3407 11.4213 62.7943 11.6706 62.325C11.9273 61.8483 12.283 61.4817 12.7376 61.225C13.1996 60.9683 13.7276 60.84 14.3216 60.84C14.8936 60.84 15.4033 60.9647 15.8506 61.214C16.298 61.4633 16.6463 61.8153 16.8956 62.27C17.145 62.7173 17.2696 63.2343 17.2696 63.821ZM15.9606 63.425C15.9533 62.963 15.7883 62.5927 15.4656 62.314C15.143 62.0353 14.7433 61.896 14.2666 61.896C13.834 61.896 13.4636 62.0353 13.1556 62.314C12.8476 62.5853 12.6643 62.9557 12.6056 63.425H15.9606ZM20.9457 60.84C21.415 60.84 21.8294 60.9353 22.1887 61.126C22.5554 61.3093 22.8414 61.5403 23.0467 61.819V60.939H24.3117V67.099C24.3117 67.6563 24.1944 68.1513 23.9597 68.584C23.725 69.024 23.384 69.3687 22.9367 69.618C22.4967 69.8673 21.9687 69.992 21.3527 69.992C20.5314 69.992 19.8494 69.7977 19.3067 69.409C18.764 69.0277 18.456 68.507 18.3827 67.847H19.6257C19.721 68.1623 19.9227 68.4153 20.2307 68.606C20.546 68.804 20.92 68.903 21.3527 68.903C21.8587 68.903 22.2657 68.749 22.5737 68.441C22.889 68.133 23.0467 67.6857 23.0467 67.099V66.087C22.834 66.373 22.5444 66.615 22.1777 66.813C21.8184 67.0037 21.4077 67.099 20.9457 67.099C20.4177 67.099 19.9337 66.967 19.4937 66.703C19.061 66.4317 18.7164 66.0577 18.4597 65.581C18.2104 65.097 18.0857 64.5507 18.0857 63.942C18.0857 63.3333 18.2104 62.7943 18.4597 62.325C18.7164 61.8557 19.061 61.4927 19.4937 61.236C19.9337 60.972 20.4177 60.84 20.9457 60.84ZM23.0467 63.964C23.0467 63.546 22.9587 63.183 22.7827 62.875C22.614 62.567 22.3904 62.3323 22.1117 62.171C21.833 62.0097 21.5324 61.929 21.2097 61.929C20.887 61.929 20.5864 62.0097 20.3077 62.171C20.029 62.325 19.8017 62.556 19.6257 62.864C19.457 63.1647 19.3727 63.524 19.3727 63.942C19.3727 64.36 19.457 64.7267 19.6257 65.042C19.8017 65.3573 20.029 65.5993 20.3077 65.768C20.5937 65.9293 20.8944 66.01 21.2097 66.01C21.5324 66.01 21.833 65.9293 22.1117 65.768C22.3904 65.6067 22.614 65.372 22.7827 65.064C22.9587 64.7487 23.0467 64.382 23.0467 63.964ZM29.0168 60.84C29.4935 60.84 29.9188 60.939 30.2928 61.137C30.6741 61.335 30.9711 61.6283 31.1838 62.017C31.3965 62.4057 31.5028 62.875 31.5028 63.425V67H30.2598V63.612C30.2598 63.0693 30.1241 62.655 29.8528 62.369C29.5815 62.0757 29.2111 61.929 28.7418 61.929C28.2725 61.929 27.8985 62.0757 27.6198 62.369C27.3485 62.655 27.2128 63.0693 27.2128 63.612V67H25.9588V60.939H27.2128V61.632C27.4181 61.3827 27.6785 61.1883 27.9938 61.049C28.3165 60.9097 28.6575 60.84 29.0168 60.84ZM32.6843 63.942C32.6843 63.3333 32.809 62.7943 33.0583 62.325C33.315 61.8557 33.6597 61.4927 34.0923 61.236C34.5323 60.972 35.0163 60.84 35.5443 60.84C36.021 60.84 36.4353 60.9353 36.7873 61.126C37.1467 61.3093 37.4327 61.5403 37.6453 61.819V60.939H38.9103V67H37.6453V66.098C37.4327 66.384 37.143 66.6223 36.7763 66.813C36.4097 67.0037 35.9917 67.099 35.5223 67.099C35.0017 67.099 34.525 66.967 34.0923 66.703C33.6597 66.4317 33.315 66.0577 33.0583 65.581C32.809 65.097 32.6843 64.5507 32.6843 63.942ZM37.6453 63.964C37.6453 63.546 37.5573 63.183 37.3813 62.875C37.2127 62.567 36.989 62.3323 36.7103 62.171C36.4317 62.0097 36.131 61.929 35.8083 61.929C35.4857 61.929 35.185 62.0097 34.9063 62.171C34.6277 62.325 34.4003 62.556 34.2243 62.864C34.0557 63.1647 33.9713 63.524 33.9713 63.942C33.9713 64.36 34.0557 64.7267 34.2243 65.042C34.4003 65.3573 34.6277 65.5993 34.9063 65.768C35.1923 65.9293 35.493 66.01 35.8083 66.01C36.131 66.01 36.4317 65.9293 36.7103 65.768C36.989 65.6067 37.2127 65.372 37.3813 65.064C37.5573 64.7487 37.6453 64.382 37.6453 63.964ZM43.6154 60.84C44.0921 60.84 44.5174 60.939 44.8914 61.137C45.2728 61.335 45.5698 61.6283 45.7824 62.017C45.9951 62.4057 46.1014 62.875 46.1014 63.425V67H44.8584V63.612C44.8584 63.0693 44.7228 62.655 44.4514 62.369C44.1801 62.0757 43.8098 61.929 43.3404 61.929C42.8711 61.929 42.4971 62.0757 42.2184 62.369C41.9471 62.655 41.8114 63.0693 41.8114 63.612V67H40.5574V60.939H41.8114V61.632C42.0168 61.3827 42.2771 61.1883 42.5924 61.049C42.9151 60.9097 43.2561 60.84 43.6154 60.84ZM47.283 63.964C47.283 63.3407 47.4076 62.7943 47.657 62.325C47.9136 61.8483 48.2656 61.4817 48.713 61.225C49.1603 60.9683 49.6736 60.84 50.253 60.84C50.9863 60.84 51.5913 61.016 52.068 61.368C52.552 61.7127 52.8783 62.2077 53.047 62.853H51.694C51.584 62.5523 51.408 62.3177 51.166 62.149C50.924 61.9803 50.6196 61.896 50.253 61.896C49.7396 61.896 49.329 62.0793 49.021 62.446C48.7203 62.8053 48.57 63.3113 48.57 63.964C48.57 64.6167 48.7203 65.1263 49.021 65.493C49.329 65.8597 49.7396 66.043 50.253 66.043C50.979 66.043 51.4593 65.724 51.694 65.086H53.047C52.871 65.702 52.541 66.1933 52.057 66.56C51.573 66.9193 50.9716 67.099 50.253 67.099C49.6736 67.099 49.1603 66.9707 48.713 66.714C48.2656 66.45 47.9136 66.0833 47.657 65.614C47.4076 65.1373 47.283 64.5873 47.283 63.964ZM59.7527 60.939L56.0347 69.849H54.7367L55.9687 66.901L53.5817 60.939H54.9787L56.6837 65.559L58.4547 60.939H59.7527Z" fill="black"/>
<ellipse cx="29.5" cy="23" rx="15.5" ry="16" fill="#FFCDD2"/>
<path d="M29.3595 30C27.1993 29.9481 25.088 29.2138 23.2619 27.5642C22.8742 27.2134 22.5469 26.777 22.1912 26.3811C21.9678 26.132 21.9481 25.8829 22.0909 25.5508C23.0385 23.332 23.9678 21.1027 24.903 18.8766C25.1123 18.3779 25.3196 17.8782 25.5316 17.3805C25.7019 16.9799 25.8159 16.9369 26.1775 17.0977C27.5774 17.7204 29.0258 17.9166 30.5182 17.7282C31.3367 17.6244 32.1359 17.4381 32.8959 17.0609C33.1655 16.927 33.3047 17.009 33.453 17.3556C33.8665 18.3267 34.2773 19.2988 34.6853 20.2719C35.4269 22.0362 36.1598 23.8005 36.9138 25.5591C37.0511 25.8757 37.025 26.1009 36.8309 26.3614C35.9383 27.5616 34.8327 28.4246 33.5697 29.0421C32.2756 29.672 30.9201 29.9792 29.3595 30ZM26.0873 17.9524L22.7675 25.8534C26.2128 30.3996 33.0886 30.1266 36.2322 25.8435L32.9114 17.9524C30.618 18.8174 28.3671 18.8242 26.0873 17.9524Z" fill="#E91E63"/>
<path d="M32.1529 25.912C32.1717 26.1767 32.2298 26.447 32.201 26.7049C32.1144 27.4833 31.6841 27.9545 31.0565 28.2098C30.4522 28.4562 29.8361 28.4023 29.2254 28.2362C27.9606 27.8922 27.0107 27.0225 26.2622 25.8586C25.7312 25.0319 25.6543 24.1228 26.036 23.1638C25.6566 22.6766 25.5027 22.1027 25.5416 21.4514C25.6172 20.1915 26.4746 19.3535 27.5865 19.4593C28.0077 19.4993 28.4078 19.6088 28.7672 19.8682C29.251 20.2185 29.5161 20.7192 29.5518 21.3731C29.5605 21.5329 29.5655 21.6932 29.5701 21.8012C29.8448 21.9486 30.1075 22.0414 30.3177 22.2163C30.5548 22.4145 30.5758 22.7461 30.5374 23.0819C31.1732 23.4752 31.8297 23.6376 32.537 23.5084C32.6174 23.4849 32.6988 23.4664 32.781 23.4529C33.2818 23.4243 33.6141 23.9422 33.3637 24.4274C33.1252 24.8892 32.8144 25.3059 32.5109 25.72C32.4335 25.829 32.2664 25.8549 32.1529 25.912ZM28.0063 24.3262C28.2975 24.3542 28.5456 24.3677 28.7905 24.4051C29.0194 24.4404 29.175 24.348 29.3087 24.1456C29.4836 23.8799 29.7569 23.1405 29.7907 22.7856C29.4438 22.6766 29.4328 22.6818 29.311 23.0206C29.2304 23.2448 29.1586 23.4731 29.0711 23.6952C28.9796 23.9272 28.8528 24.0164 28.6527 23.9827C28.406 23.9417 28.1601 23.8919 27.9171 23.827C27.696 23.7699 27.5843 23.5826 27.6136 23.36C27.6429 23.1374 27.7967 23.017 28.0356 23.0357C28.1862 23.0476 28.3359 23.0787 28.4875 23.1016C28.7223 22.5827 28.8679 22.0669 28.8441 21.4966C28.8248 21.0358 28.639 20.7068 28.2801 20.4961C27.9918 20.3327 27.672 20.2537 27.3499 20.2662C26.9191 20.273 26.5877 20.4795 26.4036 20.9253C26.1963 21.4291 26.1789 21.9402 26.4494 22.4301C26.4914 22.4955 26.5441 22.5511 26.6046 22.5941C27.0088 22.9189 27.0207 22.9703 26.7419 23.456C26.5204 23.8416 26.4508 24.2671 26.568 24.6931C26.6584 25.0127 26.7958 25.3127 26.9745 25.5804C27.3433 26.1288 27.7995 26.594 28.3194 26.9519C28.919 27.3773 29.6183 27.5866 30.325 27.5523C30.7283 27.5352 31.0986 27.3966 31.3545 27.0074C31.4209 26.911 31.4656 26.7978 31.4848 26.6775C31.504 26.5572 31.4972 26.4334 31.4648 26.3168C31.4072 26.0993 31.3458 25.8933 31.0954 25.8347C30.9169 25.7932 30.8208 25.5752 30.8487 25.4009C30.8623 25.3074 30.9043 25.2222 30.9675 25.1602C31.0308 25.0982 31.1112 25.0633 31.1948 25.0615C31.42 25.0465 31.6466 25.0584 31.8718 25.0439C31.9606 25.0382 32.0755 25.021 32.1286 24.9567C32.2701 24.7834 32.3845 24.5815 32.5434 24.3392C31.7102 24.4347 30.9787 24.2458 30.2838 23.868C30.1648 24.1062 30.0901 24.3475 29.9487 24.5161C29.7198 24.7886 29.7358 25.0605 29.848 25.3656C29.8709 25.4273 29.8937 25.4896 29.9125 25.554C29.9848 25.8067 29.9221 26.0179 29.7514 26.1035C29.5596 26.199 29.3545 26.1097 29.2538 25.8638C29.1746 25.6707 29.1196 25.4647 29.0478 25.2468L27.9569 25.1134C27.9738 24.8456 27.9903 24.6199 28.0063 24.3262Z" fill="#E91E63"/>
</svg>
