<svg width="366" height="206" viewBox="0 0 366 206" fill="none" xmlns="http://www.w3.org/2000/svg">
<rect width="366" height="206" rx="20" fill="#8950A4"/>
<path d="M135.026 92.4784L131.096 92.5118L130.481 94.3771L127.796 94.3999L131.519 83.8378L134.489 83.8126L138.386 94.3099L135.671 94.3329L135.026 92.4784ZM134.349 90.504L133.012 86.6603L131.754 90.5261L134.349 90.504ZM142.053 87.3034C142.349 86.8409 142.721 86.4777 143.169 86.2139C143.616 85.9401 144.115 85.8009 144.665 85.7962L144.688 88.5111L143.983 88.5171C143.343 88.5225 142.864 88.6666 142.546 88.9493C142.228 89.222 142.072 89.7034 142.078 90.3933L142.11 94.2782L139.545 94.3L139.476 85.9303L142.041 85.9085L142.053 87.3034ZM150.608 92.0309L150.626 94.2058L149.321 94.2169C148.391 94.2248 147.664 94.006 147.141 93.5604C146.617 93.1049 146.351 92.3621 146.342 91.3321L146.315 88.0022L145.295 88.0109L145.277 85.881L146.297 85.8723L146.28 83.8324L148.845 83.8106L148.862 85.8505L150.542 85.8362L150.559 87.9662L148.879 87.9804L148.907 91.3403C148.909 91.5903 148.971 91.7698 149.092 91.8788C149.213 91.9878 149.413 92.0411 149.693 92.0387L150.608 92.0309ZM153.268 84.943C152.818 84.9469 152.447 84.82 152.155 84.5625C151.873 84.2949 151.73 83.9661 151.727 83.5761C151.724 83.1761 151.861 82.8449 152.139 82.5825C152.427 82.3101 152.795 82.1719 153.245 82.1681C153.685 82.1644 154.046 82.2963 154.329 82.5639C154.621 82.8215 154.769 83.1502 154.772 83.5502C154.775 83.9402 154.633 84.2714 154.345 84.5439C154.067 84.8062 153.708 84.9393 153.268 84.943ZM154.55 85.8022L154.62 94.1719L152.055 94.1937L151.986 85.824L154.55 85.8022ZM155.934 89.9756C155.927 89.1056 156.095 88.3441 156.44 87.6912C156.795 87.0381 157.285 86.5339 157.912 86.1786C158.55 85.8232 159.278 85.642 160.098 85.635C161.148 85.6261 162.025 85.8936 162.73 86.4377C163.444 86.9816 163.916 87.7526 164.144 88.7507L161.414 88.7739C161.179 88.1359 160.731 87.8197 160.071 87.8253C159.601 87.8293 159.228 88.0175 158.951 88.3899C158.674 88.7522 158.538 89.2734 158.544 89.9534C158.549 90.6333 158.694 91.1571 158.977 91.5247C159.26 91.8824 159.636 92.0592 160.106 92.0552C160.766 92.0496 161.208 91.7258 161.433 91.0839L164.163 91.0606C163.951 92.0425 163.493 92.8164 162.787 93.3824C162.082 93.9484 161.209 94.2359 160.169 94.2447C159.349 94.2517 158.618 94.0829 157.975 93.7383C157.342 93.3937 156.843 92.8979 156.478 92.251C156.122 91.604 155.941 90.8455 155.934 89.9756ZM168.033 82.9575L168.125 94.0571L165.56 94.0789L165.468 82.9793L168.033 82.9575ZM177.838 89.6544C177.84 89.8944 177.827 90.1445 177.799 90.4047L171.994 90.4541C172.038 90.9737 172.207 91.3723 172.499 91.6498C172.801 91.9173 173.167 92.0492 173.597 92.0455C174.237 92.0401 174.68 91.7663 174.926 91.2242L177.656 91.201C177.52 91.7521 177.269 92.2493 176.903 92.6924C176.546 93.1355 176.094 93.4843 175.546 93.739C174.998 93.9937 174.385 94.1239 173.705 94.1297C172.885 94.1366 172.153 93.9678 171.51 93.6233C170.867 93.2787 170.363 92.783 169.998 92.1361C169.633 91.4892 169.446 90.7307 169.439 89.8608C169.432 88.9908 169.601 88.2293 169.945 87.5764C170.3 86.9233 170.796 86.4191 171.433 86.0637C172.07 85.7083 172.803 85.527 173.633 85.52C174.443 85.5131 175.165 85.6769 175.798 86.0116C176.43 86.3462 176.924 86.827 177.28 87.454C177.645 88.081 177.831 88.8144 177.838 89.6544ZM175.207 89.0017C175.204 88.5617 175.051 88.213 174.749 87.9556C174.446 87.6981 174.07 87.5713 173.62 87.5751C173.19 87.5788 172.826 87.7069 172.529 87.9594C172.241 88.2119 172.064 88.5684 171.997 89.029L175.207 89.0017ZM182.632 94.0538C181.902 94.06 181.251 93.9405 180.679 93.6954C180.107 93.4502 179.655 93.1141 179.321 92.6869C178.987 92.2497 178.798 91.7613 178.754 91.2216L181.289 91.2001C181.321 91.4898 181.458 91.7237 181.7 91.9016C181.941 92.0796 182.237 92.1671 182.587 92.1641C182.907 92.1614 183.151 92.0993 183.32 91.9779C183.499 91.8463 183.588 91.6806 183.586 91.4806C183.584 91.2406 183.458 91.0667 183.207 90.9588C182.956 90.8409 182.55 90.7144 181.989 90.5791C181.388 90.4442 180.886 90.3035 180.485 90.1569C180.084 90.0003 179.737 89.7582 179.444 89.4307C179.151 89.0932 179.003 88.6394 178.998 88.0695C178.994 87.5895 179.12 87.1534 179.377 86.7612C179.644 86.3589 180.031 86.0406 180.539 85.8063C181.057 85.5719 181.671 85.4516 182.381 85.4456C183.431 85.4367 184.258 85.6897 184.863 86.2045C185.477 86.7193 185.833 87.4063 185.93 88.2655L183.56 88.2857C183.517 87.996 183.385 87.7671 183.164 87.599C182.953 87.4308 182.672 87.3482 182.322 87.3512C182.022 87.3537 181.793 87.4157 181.634 87.537C181.474 87.6484 181.396 87.8041 181.397 88.0041C181.399 88.244 181.526 88.423 181.777 88.5408C182.038 88.6586 182.439 88.7752 182.98 88.8906C183.601 89.0454 184.107 89.2011 184.499 89.3577C184.89 89.5044 185.232 89.7515 185.525 90.099C185.828 90.4365 185.986 90.8952 186.001 91.475C186.005 91.965 185.869 92.4062 185.592 92.7986C185.325 93.1809 184.933 93.4842 184.415 93.7086C183.906 93.9329 183.312 94.048 182.632 94.0538ZM193.188 79.5935L189.309 96.6821L186.834 96.7032L190.713 79.6146L193.188 79.5935ZM198.198 93.9065C197.428 93.913 196.737 93.7939 196.125 93.5491C195.513 93.3043 195.02 92.9384 194.646 92.4516C194.282 91.9647 194.087 91.3763 194.061 90.6865L196.791 90.6633C196.834 91.053 196.972 91.3518 197.203 91.5598C197.435 91.7579 197.736 91.8553 198.106 91.8522C198.486 91.8489 198.785 91.7614 199.004 91.5895C199.222 91.4077 199.33 91.1617 199.328 90.8518C199.326 90.5918 199.234 90.3775 199.052 90.2091C198.881 90.0405 198.665 89.9024 198.404 89.7946C198.153 89.6867 197.792 89.5648 197.321 89.4288C196.639 89.2245 196.082 89.0193 195.651 88.8129C195.219 88.6066 194.846 88.2998 194.533 87.8924C194.22 87.4851 194.06 86.9514 194.055 86.2914C194.047 85.3114 194.395 84.5435 195.101 83.9874C195.806 83.4214 196.729 83.1336 197.869 83.1239C199.029 83.114 199.966 83.3861 200.681 83.94C201.395 84.484 201.781 85.2507 201.84 86.2402L199.065 86.2638C199.042 85.924 198.915 85.6601 198.683 85.472C198.452 85.274 198.156 85.1765 197.796 85.1796C197.486 85.1822 197.236 85.2693 197.048 85.4409C196.859 85.6025 196.766 85.8383 196.769 86.1483C196.772 86.4883 196.934 86.752 197.255 86.9392C197.577 87.1265 198.078 87.3272 198.76 87.5415C199.442 87.7657 199.994 87.981 200.416 88.1874C200.847 88.3938 201.22 88.6956 201.533 89.0929C201.846 89.4903 202.006 90.004 202.011 90.6339C202.016 91.2339 201.865 91.7802 201.559 92.2728C201.264 92.7654 200.827 93.1591 200.249 93.454C199.672 93.7489 198.988 93.8998 198.198 93.9065ZM208.262 91.5408L208.28 93.7158L206.975 93.7269C206.045 93.7348 205.318 93.5159 204.795 93.0704C204.271 92.6148 204.005 91.872 203.996 90.8421L203.969 87.5122L202.949 87.5209L202.931 85.3909L203.951 85.3823L203.934 83.3423L206.499 83.3205L206.516 85.3605L208.196 85.3462L208.214 87.4761L206.534 87.4904L206.561 90.8503C206.563 91.1003 206.625 91.2797 206.746 91.3887C206.867 91.4977 207.067 91.551 207.347 91.5486L208.262 91.5408ZM213.52 93.7912C212.7 93.7982 211.958 93.6295 211.295 93.2851C210.643 92.9407 210.123 92.4451 209.738 91.7983C209.363 91.1515 209.171 90.3931 209.164 89.5231C209.157 88.6631 209.341 87.9065 209.716 87.2533C210.09 86.5901 210.606 86.0807 211.263 85.7251C211.92 85.3695 212.659 85.1882 213.479 85.1813C214.299 85.1743 215.04 85.343 215.703 85.6874C216.366 86.0318 216.89 86.5323 217.275 87.1891C217.661 87.8358 217.857 88.5892 217.864 89.4492C217.871 90.3091 217.682 91.0708 217.298 91.7341C216.923 92.3873 216.402 92.8917 215.735 93.2474C215.078 93.603 214.34 93.7843 213.52 93.7912ZM213.501 91.5713C213.991 91.5671 214.405 91.3836 214.742 91.0207C215.089 90.6578 215.26 90.1413 215.254 89.4713C215.249 88.8014 215.074 88.2878 214.731 87.9307C214.398 87.5735 213.987 87.397 213.497 87.4012C212.997 87.4054 212.583 87.589 212.256 87.9518C211.929 88.3046 211.769 88.8209 211.774 89.5009C211.78 90.1709 211.944 90.6845 212.267 91.0418C212.6 91.399 213.011 91.5755 213.501 91.5713ZM221.767 86.6259C222.063 86.1633 222.435 85.8002 222.883 85.5364C223.33 85.2625 223.829 85.1233 224.379 85.1186L224.402 87.8335L223.697 87.8395C223.057 87.845 222.578 87.989 222.26 88.2717C221.942 88.5445 221.786 89.0258 221.792 89.7158L221.824 93.6006L219.259 93.6224L219.19 85.2527L221.755 85.2309L221.767 86.6259ZM226.889 84.3173C226.439 84.3211 226.068 84.1942 225.775 83.9367C225.493 83.6691 225.351 83.3403 225.347 82.9503C225.344 82.5503 225.481 82.2191 225.759 81.9568C226.047 81.6843 226.416 81.5462 226.866 81.5424C227.306 81.5386 227.667 81.6706 227.949 81.9382C228.241 82.1957 228.389 82.5244 228.392 82.9244C228.395 83.3144 228.253 83.6456 227.965 83.9181C227.688 84.1805 227.329 84.3135 226.889 84.3173ZM228.171 85.1764L228.24 93.5461L225.675 93.5679L225.606 85.1982L228.171 85.1764ZM237.953 89.1434C237.955 89.3834 237.942 89.6335 237.914 89.8938L232.109 89.9431C232.153 90.4627 232.322 90.8613 232.614 91.1388C232.916 91.4063 233.282 91.5382 233.712 91.5345C234.352 91.5291 234.795 91.2553 235.041 90.7132L237.771 90.69C237.635 91.2412 237.384 91.7383 237.018 92.1815C236.661 92.6245 236.209 92.9734 235.661 93.228C235.113 93.4827 234.5 93.6129 233.82 93.6187C233 93.6257 232.268 93.4569 231.625 93.1123C230.982 92.7678 230.478 92.272 230.113 91.6251C229.748 90.9782 229.561 90.2198 229.554 89.3498C229.547 88.4798 229.716 87.7184 230.06 87.0654C230.415 86.4124 230.911 85.9081 231.548 85.5527C232.185 85.1973 232.918 85.016 233.748 85.009C234.558 85.0021 235.28 85.166 235.913 85.5006C236.545 85.8352 237.039 86.3161 237.395 86.9431C237.76 87.57 237.946 88.3034 237.953 89.1434ZM235.322 88.4907C235.319 88.0507 235.166 87.702 234.864 87.4446C234.561 87.1872 234.185 87.0603 233.735 87.0642C233.305 87.0678 232.941 87.1959 232.644 87.4485C232.356 87.7009 232.179 88.0574 232.112 88.518L235.322 88.4907ZM242.747 93.5428C242.017 93.549 241.366 93.4295 240.794 93.1844C240.222 92.9392 239.77 92.6031 239.436 92.1759C239.102 91.7387 238.913 91.2503 238.869 90.7107L241.404 90.6891C241.436 90.9789 241.573 91.2127 241.815 91.3907C242.056 91.5686 242.352 91.6561 242.702 91.6531C243.022 91.6504 243.266 91.5883 243.435 91.4669C243.614 91.3354 243.703 91.1696 243.701 90.9696C243.699 90.7296 243.573 90.5557 243.322 90.4478C243.071 90.3299 242.665 90.2034 242.104 90.0682C241.503 89.9333 241.001 89.7925 240.6 89.6459C240.199 89.4893 239.852 89.2473 239.559 88.9197C239.266 88.5822 239.118 88.1285 239.113 87.5585C239.109 87.0785 239.235 86.6424 239.492 86.2502C239.759 85.8479 240.146 85.5296 240.654 85.2953C241.172 85.0609 241.786 84.9407 242.496 84.9346C243.546 84.9257 244.373 85.1787 244.978 85.6936C245.592 86.2084 245.948 86.8954 246.045 87.7546L243.675 87.7747C243.632 87.4851 243.501 87.2562 243.279 87.0881C243.068 86.9198 242.787 86.8372 242.437 86.8402C242.137 86.8428 241.908 86.9047 241.749 87.0261C241.589 87.1374 241.511 87.2931 241.512 87.4931C241.514 87.7331 241.641 87.912 241.892 88.0299C242.153 88.1477 242.554 88.2643 243.095 88.3797C243.716 88.5344 244.222 88.6901 244.614 88.8468C245.005 88.9935 245.347 89.2406 245.64 89.5881C245.943 89.9255 246.101 90.3842 246.116 90.9641C246.12 91.4541 245.984 91.8952 245.707 92.2876C245.44 92.6699 245.048 92.9732 244.53 93.1976C244.021 93.422 243.427 93.537 242.747 93.5428Z" fill="white"/>
</svg>
