<svg width="310" height="172" viewBox="0 0 310 172" fill="none" xmlns="http://www.w3.org/2000/svg">
<rect width="310" height="172" rx="20" fill="#8950A4"/>
<path d="M106.443 83.5765L102.513 83.6094L101.899 85.4746L99.2141 85.4971L102.936 74.9356L105.906 74.9107L109.804 85.4084L107.089 85.4311L106.443 83.5765ZM105.767 81.6021L104.429 77.7581L103.172 81.6238L105.767 81.6021ZM113.47 78.4024C113.766 77.9399 114.138 77.5768 114.586 77.313C115.033 77.0393 115.532 76.9001 116.082 76.8955L116.105 79.6104L115.4 79.6163C114.76 79.6217 114.281 79.7657 113.963 80.0483C113.646 80.321 113.49 80.8023 113.496 81.4923L113.528 85.3772L110.963 85.3987L110.893 77.029L113.458 77.0075L113.47 78.4024ZM122.026 83.1309L122.044 85.3058L120.739 85.3168C119.809 85.3245 119.082 85.1056 118.558 84.66C118.034 84.2044 117.768 83.4616 117.76 82.4316L117.732 79.1017L116.712 79.1103L116.694 76.9804L117.714 76.9718L117.697 74.9319L120.262 74.9104L120.279 76.9503L121.959 76.9362L121.977 79.0662L120.297 79.0802L120.325 82.4401C120.327 82.6901 120.388 82.8696 120.509 82.9786C120.63 83.0876 120.831 83.1409 121.111 83.1386L122.026 83.1309ZM124.685 76.0434C124.235 76.0471 123.864 75.9202 123.572 75.6627C123.29 75.395 123.147 75.0662 123.144 74.6762C123.14 74.2762 123.277 73.9451 123.555 73.6827C123.843 73.4103 124.212 73.2722 124.662 73.2685C125.102 73.2648 125.463 73.3968 125.745 73.6644C126.037 73.922 126.185 74.2507 126.188 74.6507C126.192 75.0407 126.049 75.3719 125.762 75.6443C125.484 75.9067 125.125 76.0397 124.685 76.0434ZM125.967 76.9027L126.037 85.2724L123.473 85.2938L123.402 76.9241L125.967 76.9027ZM127.351 81.0762C127.344 80.2062 127.512 79.4448 127.857 78.7919C128.212 78.1389 128.702 77.6348 129.329 77.2795C129.966 76.9241 130.695 76.743 131.515 76.7362C132.565 76.7274 133.442 76.995 134.147 77.5391C134.861 78.0832 135.333 78.8542 135.561 79.8524L132.831 79.8752C132.596 79.2372 132.148 78.9209 131.488 78.9265C131.018 78.9304 130.645 79.1185 130.368 79.4909C130.091 79.8532 129.955 80.3744 129.961 81.0543C129.967 81.7343 130.111 82.2581 130.394 82.6258C130.677 82.9834 131.054 83.1603 131.524 83.1563C132.184 83.1508 132.626 82.8271 132.851 82.1852L135.581 82.1623C135.369 83.1441 134.91 83.918 134.205 84.4839C133.5 85.0498 132.627 85.3371 131.587 85.3459C130.767 85.3527 130.036 85.1839 129.393 84.8392C128.76 84.4945 128.261 83.9987 127.895 83.3517C127.54 82.7047 127.358 81.9462 127.351 81.0762ZM139.45 74.0596L139.543 85.1592L136.978 85.1807L136.885 74.0811L139.45 74.0596ZM149.255 80.7577C149.257 80.9977 149.244 81.2478 149.216 81.508L143.412 81.5567C143.456 82.0763 143.624 82.4749 143.917 82.7525C144.219 83.0199 144.585 83.1519 145.015 83.1483C145.655 83.1429 146.098 82.8692 146.343 82.3271L149.073 82.3042C148.938 82.8554 148.687 83.3525 148.321 83.7956C147.964 84.2386 147.512 84.5874 146.964 84.842C146.416 85.0966 145.802 85.2268 145.122 85.2324C144.302 85.2393 143.571 85.0704 142.928 84.7258C142.285 84.3812 141.781 83.8854 141.416 83.2384C141.05 82.5915 140.864 81.833 140.857 80.963C140.849 80.0931 141.018 79.3316 141.362 78.6787C141.717 78.0257 142.213 77.5216 142.85 77.1662C143.487 76.8109 144.22 76.6297 145.05 76.6227C145.86 76.616 146.582 76.7799 147.215 77.1146C147.847 77.4493 148.341 77.9302 148.697 78.5573C149.062 79.1842 149.248 79.9177 149.255 80.7577ZM146.625 80.1047C146.621 79.6647 146.468 79.316 146.166 79.0585C145.864 78.801 145.488 78.6742 145.038 78.6779C144.608 78.6815 144.244 78.8096 143.946 79.0621C143.658 79.3145 143.481 79.671 143.415 80.1316L146.625 80.1047ZM154.05 85.1576C153.32 85.1638 152.669 85.0442 152.097 84.799C151.525 84.5538 151.072 84.2176 150.739 83.7903C150.405 83.3531 150.216 82.8647 150.171 82.325L152.706 82.3038C152.739 82.5935 152.876 82.8274 153.117 83.0054C153.359 83.1834 153.654 83.2709 154.004 83.268C154.324 83.2653 154.569 83.2032 154.738 83.0818C154.917 82.9503 155.005 82.7846 155.004 82.5846C155.002 82.3446 154.875 82.1706 154.624 82.0627C154.373 81.9448 153.967 81.8182 153.406 81.6829C152.805 81.5479 152.304 81.4071 151.903 81.2605C151.501 81.1039 151.154 80.8618 150.861 80.5342C150.569 80.1966 150.42 79.7429 150.415 79.1729C150.411 78.6929 150.537 78.2568 150.794 77.8647C151.061 77.4624 151.448 77.1442 151.956 76.9099C152.474 76.6755 153.088 76.5554 153.798 76.5495C154.848 76.5407 155.675 76.7937 156.28 77.3087C156.894 77.8236 157.25 78.5106 157.347 79.3698L154.977 79.3897C154.935 79.1 154.803 78.8711 154.581 78.703C154.37 78.5347 154.089 78.4521 153.739 78.455C153.439 78.4575 153.21 78.5195 153.051 78.6408C152.892 78.7521 152.813 78.9078 152.815 79.1078C152.817 79.3478 152.943 79.5267 153.194 79.6446C153.455 79.7624 153.856 79.8791 154.397 79.9946C155.018 80.1494 155.525 80.3051 155.916 80.4618C156.307 80.6086 156.649 80.8557 156.942 81.2033C157.245 81.5407 157.404 81.9994 157.419 82.5793C157.423 83.0693 157.287 83.5105 157.01 83.9028C156.743 84.285 156.351 84.5883 155.832 84.8127C155.324 85.037 154.73 85.1519 154.05 85.1576ZM164.604 70.6987L160.727 87.7868L158.252 87.8075L162.129 70.7194L164.604 70.6987ZM169.616 85.0122C168.846 85.0187 168.155 84.8995 167.543 84.6546C166.931 84.4097 166.438 84.0438 166.063 83.5569C165.699 83.07 165.504 82.4816 165.479 81.7918L168.209 81.7689C168.252 82.1585 168.389 82.4574 168.621 82.6655C168.853 82.8635 169.154 82.961 169.524 82.9579C169.904 82.9547 170.203 82.8672 170.421 82.6954C170.64 82.5135 170.748 82.2676 170.745 81.9576C170.743 81.6977 170.651 81.4834 170.47 81.3149C170.298 81.1464 170.082 81.0082 169.821 80.9004C169.57 80.7924 169.209 80.6705 168.738 80.5344C168.056 80.3301 167.5 80.1248 167.068 79.9184C166.636 79.712 166.264 79.4051 165.95 78.9977C165.637 78.5903 165.477 78.0566 165.472 77.3967C165.464 76.4167 165.812 75.6488 166.518 75.0928C167.223 74.5269 168.145 74.2392 169.285 74.2296C170.445 74.2199 171.383 74.492 172.097 75.0461C172.812 75.5901 173.198 76.3569 173.257 77.3464L170.482 77.3697C170.459 77.0299 170.332 76.7659 170.1 76.5779C169.868 76.3798 169.573 76.2823 169.213 76.2853C168.903 76.2879 168.653 76.375 168.465 76.5466C168.276 76.7081 168.183 76.9439 168.186 77.2539C168.189 77.5939 168.351 77.8576 168.672 78.0449C168.994 78.2322 169.496 78.433 170.177 78.6473C170.859 78.8716 171.411 79.087 171.833 79.2934C172.265 79.4998 172.637 79.8017 172.951 80.1991C173.264 80.5965 173.423 81.1102 173.429 81.7402C173.434 82.3401 173.283 82.8864 172.977 83.379C172.681 83.8715 172.245 84.2652 171.667 84.56C171.09 84.8549 170.406 85.0056 169.616 85.0122ZM179.68 82.6478L179.698 84.8227L178.393 84.8337C177.463 84.8415 176.736 84.6225 176.213 84.1769C175.689 83.7213 175.422 82.9785 175.414 81.9485L175.386 78.6186L174.366 78.6272L174.348 76.4973L175.368 76.4887L175.351 74.4488L177.916 74.4273L177.933 76.4672L179.613 76.4532L179.631 78.5831L177.951 78.5972L177.979 81.957C177.981 82.207 178.043 82.3865 178.164 82.4955C178.284 82.6045 178.485 82.6578 178.765 82.6555L179.68 82.6478ZM184.938 84.8988C184.118 84.9057 183.376 84.7369 182.713 84.3925C182.06 84.0479 181.541 83.5522 181.156 82.9055C180.78 82.2586 180.589 81.5002 180.582 80.6302C180.575 79.7702 180.758 79.0136 181.133 78.3605C181.507 77.6973 182.023 77.188 182.68 76.8325C183.337 76.477 184.076 76.2958 184.895 76.2889C185.715 76.282 186.457 76.4508 187.12 76.7953C187.783 77.1397 188.307 77.6403 188.692 78.2971C189.078 78.9439 189.274 79.6973 189.281 80.5573C189.289 81.4173 189.1 82.1789 188.716 82.8421C188.341 83.4953 187.82 83.9997 187.153 84.3553C186.496 84.7108 185.758 84.892 184.938 84.8988ZM184.919 82.6789C185.409 82.6748 185.822 82.4913 186.159 82.1285C186.506 81.7656 186.677 81.2491 186.672 80.5792C186.666 79.9092 186.492 79.3956 186.149 79.0385C185.816 78.6813 185.404 78.5047 184.914 78.5088C184.414 78.513 184.001 78.6965 183.674 79.0592C183.347 79.412 183.186 79.9283 183.192 80.6083C183.197 81.2783 183.362 81.7919 183.685 82.1492C184.018 82.5065 184.429 82.683 184.919 82.6789ZM193.184 77.7345C193.48 77.272 193.852 76.9089 194.3 76.6451C194.747 76.3713 195.246 76.2322 195.796 76.2275L195.819 78.9425L195.114 78.9484C194.474 78.9537 193.995 79.0977 193.677 79.3804C193.36 79.6531 193.204 80.1344 193.21 80.8244L193.242 84.7092L190.677 84.7307L190.607 76.361L193.172 76.3395L193.184 77.7345ZM198.306 75.4265C197.856 75.4303 197.484 75.3034 197.192 75.0458C196.91 74.7782 196.767 74.4494 196.764 74.0594C196.761 73.6594 196.898 73.3282 197.176 73.0659C197.463 72.7935 197.832 72.6554 198.282 72.6516C198.722 72.6479 199.083 72.7799 199.366 73.0475C199.658 73.3051 199.806 73.6339 199.809 74.0339C199.812 74.4238 199.67 74.755 199.382 75.0275C199.104 75.2898 198.746 75.4228 198.306 75.4265ZM199.588 76.2858L199.658 84.6555L197.093 84.677L197.023 76.3073L199.588 76.2858ZM209.37 80.254C209.372 80.4939 209.359 80.7441 209.331 81.0043L203.527 81.0529C203.571 81.5726 203.739 81.9712 204.032 82.2488C204.334 82.5162 204.7 82.6482 205.13 82.6446C205.77 82.6392 206.213 82.3655 206.458 81.8234L209.188 81.8005C209.053 82.3517 208.802 82.8488 208.436 83.2919C208.079 83.7349 207.627 84.0837 207.079 84.3383C206.531 84.5929 205.918 84.723 205.238 84.7287C204.418 84.7356 203.686 84.5667 203.043 84.2221C202.4 83.8775 201.896 83.3817 201.531 82.7347C201.165 82.0878 200.979 81.3293 200.972 80.4593C200.964 79.5894 201.133 78.8279 201.478 78.175C201.832 77.522 202.328 77.0179 202.965 76.6625C203.602 76.3071 204.335 76.126 205.165 76.119C205.975 76.1123 206.697 76.2762 207.33 76.6109C207.962 76.9456 208.456 77.4265 208.812 78.0536C209.177 78.6805 209.363 79.414 209.37 80.254ZM206.74 79.601C206.736 79.161 206.583 78.8123 206.281 78.5548C205.979 78.2973 205.603 78.1705 205.153 78.1742C204.723 78.1778 204.359 78.3059 204.061 78.5584C203.773 78.8108 203.596 79.1673 203.53 79.6279L206.74 79.601ZM214.165 84.6539C213.435 84.6601 212.784 84.5405 212.212 84.2953C211.64 84.0501 211.187 83.7139 210.854 83.2866C210.52 82.8494 210.331 82.361 210.287 81.8213L212.821 81.8001C212.854 82.0898 212.991 82.3237 213.232 82.5017C213.474 82.6797 213.77 82.7672 214.12 82.7643C214.44 82.7616 214.684 82.6995 214.853 82.5781C215.032 82.4466 215.121 82.2808 215.119 82.0809C215.117 81.8409 214.99 81.6669 214.739 81.559C214.488 81.4411 214.082 81.3145 213.521 81.1792C212.92 81.0442 212.419 80.9034 212.018 80.7568C211.616 80.6001 211.269 80.358 210.977 80.0305C210.684 79.6929 210.535 79.2392 210.53 78.6692C210.526 78.1892 210.652 77.7531 210.909 77.361C211.176 76.9587 211.563 76.6405 212.071 76.4062C212.589 76.1718 213.203 76.0517 213.913 76.0457C214.963 76.0369 215.79 76.29 216.395 76.805C217.009 77.3199 217.365 78.0069 217.462 78.8661L215.092 78.886C215.05 78.5963 214.918 78.3674 214.696 78.1993C214.485 78.031 214.204 77.9484 213.854 77.9513C213.554 77.9538 213.325 78.0157 213.166 78.1371C213.007 78.2484 212.928 78.4041 212.93 78.6041C212.932 78.8441 213.058 79.023 213.309 79.1409C213.57 79.2587 213.971 79.3754 214.512 79.4908C215.133 79.6456 215.64 79.8014 216.031 79.9581C216.422 80.1049 216.764 80.352 217.057 80.6996C217.36 81.037 217.519 81.4957 217.534 82.0756C217.538 82.5656 217.402 83.0068 217.125 83.3991C216.858 83.7813 216.466 84.0846 215.948 84.309C215.439 84.5333 214.845 84.6482 214.165 84.6539Z" fill="white"/>
</svg>
