<svg width="310" height="42" viewBox="0 0 310 42" fill="none" xmlns="http://www.w3.org/2000/svg">
<rect width="310" height="42" rx="10" fill="white"/>
<path d="M114.344 25.077C113.831 25.077 113.369 24.989 112.958 24.813C112.547 24.6297 112.225 24.373 111.99 24.043C111.755 23.713 111.638 23.328 111.638 22.888H112.98C113.009 23.218 113.138 23.4893 113.365 23.702C113.6 23.9147 113.926 24.021 114.344 24.021C114.777 24.021 115.114 23.9183 115.356 23.713C115.598 23.5003 115.719 23.229 115.719 22.899C115.719 22.6423 115.642 22.4333 115.488 22.272C115.341 22.1107 115.154 21.986 114.927 21.898C114.707 21.81 114.399 21.7147 114.003 21.612C113.504 21.48 113.097 21.348 112.782 21.216C112.474 21.0767 112.21 20.864 111.99 20.578C111.77 20.292 111.66 19.9107 111.66 19.434C111.66 18.994 111.77 18.609 111.99 18.279C112.21 17.949 112.518 17.696 112.914 17.52C113.31 17.344 113.768 17.256 114.289 17.256C115.03 17.256 115.635 17.443 116.104 17.817C116.581 18.1837 116.845 18.6897 116.896 19.335H115.51C115.488 19.0563 115.356 18.818 115.114 18.62C114.872 18.422 114.553 18.323 114.157 18.323C113.798 18.323 113.504 18.4147 113.277 18.598C113.05 18.7813 112.936 19.0453 112.936 19.39C112.936 19.6247 113.006 19.819 113.145 19.973C113.292 20.1197 113.475 20.237 113.695 20.325C113.915 20.413 114.216 20.5083 114.597 20.611C115.103 20.7503 115.514 20.8897 115.829 21.029C116.152 21.1683 116.423 21.3847 116.643 21.678C116.87 21.964 116.984 22.349 116.984 22.833C116.984 23.2217 116.878 23.5883 116.665 23.933C116.46 24.2777 116.155 24.5563 115.752 24.769C115.356 24.9743 114.887 25.077 114.344 25.077ZM124.019 21.821C124.019 22.0483 124.004 22.2537 123.975 22.437H119.344C119.38 22.921 119.56 23.3097 119.883 23.603C120.205 23.8963 120.601 24.043 121.071 24.043C121.745 24.043 122.222 23.7607 122.501 23.196H123.854C123.67 23.7533 123.337 24.2117 122.853 24.571C122.376 24.923 121.782 25.099 121.071 25.099C120.491 25.099 119.971 24.9707 119.509 24.714C119.054 24.45 118.695 24.0833 118.431 23.614C118.174 23.1373 118.046 22.5873 118.046 21.964C118.046 21.3407 118.17 20.7943 118.42 20.325C118.676 19.8483 119.032 19.4817 119.487 19.225C119.949 18.9683 120.477 18.84 121.071 18.84C121.643 18.84 122.152 18.9647 122.6 19.214C123.047 19.4633 123.395 19.8153 123.645 20.27C123.894 20.7173 124.019 21.2343 124.019 21.821ZM122.71 21.425C122.702 20.963 122.537 20.5927 122.215 20.314C121.892 20.0353 121.492 19.896 121.016 19.896C120.583 19.896 120.213 20.0353 119.905 20.314C119.597 20.5853 119.413 20.9557 119.355 21.425H122.71ZM124.835 21.942C124.835 21.3333 124.959 20.7943 125.209 20.325C125.465 19.8557 125.81 19.4927 126.243 19.236C126.683 18.972 127.167 18.84 127.695 18.84C128.171 18.84 128.586 18.9353 128.938 19.126C129.297 19.3093 129.583 19.5403 129.796 19.819V18.939H131.061V25H129.796V24.098C129.583 24.384 129.293 24.6223 128.927 24.813C128.56 25.0037 128.142 25.099 127.673 25.099C127.152 25.099 126.675 24.967 126.243 24.703C125.81 24.4317 125.465 24.0577 125.209 23.581C124.959 23.097 124.835 22.5507 124.835 21.942ZM129.796 21.964C129.796 21.546 129.708 21.183 129.532 20.875C129.363 20.567 129.139 20.3323 128.861 20.171C128.582 20.0097 128.281 19.929 127.959 19.929C127.636 19.929 127.335 20.0097 127.057 20.171C126.778 20.325 126.551 20.556 126.375 20.864C126.206 21.1647 126.122 21.524 126.122 21.942C126.122 22.36 126.206 22.7267 126.375 23.042C126.551 23.3573 126.778 23.5993 127.057 23.768C127.343 23.9293 127.643 24.01 127.959 24.01C128.281 24.01 128.582 23.9293 128.861 23.768C129.139 23.6067 129.363 23.372 129.532 23.064C129.708 22.7487 129.796 22.382 129.796 21.964ZM133.962 19.819C134.145 19.511 134.387 19.2727 134.688 19.104C134.996 18.928 135.359 18.84 135.777 18.84V20.138H135.458C134.966 20.138 134.592 20.2627 134.336 20.512C134.086 20.7613 133.962 21.194 133.962 21.81V25H132.708V18.939H133.962V19.819ZM136.511 21.964C136.511 21.3407 136.636 20.7943 136.885 20.325C137.142 19.8483 137.494 19.4817 137.941 19.225C138.389 18.9683 138.902 18.84 139.481 18.84C140.215 18.84 140.82 19.016 141.296 19.368C141.78 19.7127 142.107 20.2077 142.275 20.853H140.922C140.812 20.5523 140.636 20.3177 140.394 20.149C140.152 19.9803 139.848 19.896 139.481 19.896C138.968 19.896 138.557 20.0793 138.249 20.446C137.949 20.8053 137.798 21.3113 137.798 21.964C137.798 22.6167 137.949 23.1263 138.249 23.493C138.557 23.8597 138.968 24.043 139.481 24.043C140.207 24.043 140.688 23.724 140.922 23.086H142.275C142.099 23.702 141.769 24.1933 141.285 24.56C140.801 24.9193 140.2 25.099 139.481 25.099C138.902 25.099 138.389 24.9707 137.941 24.714C137.494 24.45 137.142 24.0833 136.885 23.614C136.636 23.1373 136.511 22.5873 136.511 21.964ZM146.66 18.84C147.122 18.84 147.533 18.939 147.892 19.137C148.259 19.335 148.545 19.6283 148.75 20.017C148.963 20.4057 149.069 20.875 149.069 21.425V25H147.826V21.612C147.826 21.0693 147.691 20.655 147.419 20.369C147.148 20.0757 146.778 19.929 146.308 19.929C145.839 19.929 145.465 20.0757 145.186 20.369C144.915 20.655 144.779 21.0693 144.779 21.612V25H143.525V16.86H144.779V19.643C144.992 19.3863 145.26 19.1883 145.582 19.049C145.912 18.9097 146.272 18.84 146.66 18.84ZM160.883 17.355V18.378H157.638V20.633H160.168V21.656H157.638V25H156.384V17.355H160.883ZM164.674 25.099C164.102 25.099 163.585 24.9707 163.123 24.714C162.661 24.45 162.298 24.0833 162.034 23.614C161.77 23.1373 161.638 22.5873 161.638 21.964C161.638 21.348 161.773 20.8017 162.045 20.325C162.316 19.8483 162.686 19.4817 163.156 19.225C163.625 18.9683 164.149 18.84 164.729 18.84C165.308 18.84 165.832 18.9683 166.302 19.225C166.771 19.4817 167.141 19.8483 167.413 20.325C167.684 20.8017 167.82 21.348 167.82 21.964C167.82 22.58 167.68 23.1263 167.402 23.603C167.123 24.0797 166.742 24.45 166.258 24.714C165.781 24.9707 165.253 25.099 164.674 25.099ZM164.674 24.01C164.996 24.01 165.297 23.933 165.576 23.779C165.862 23.625 166.093 23.394 166.269 23.086C166.445 22.778 166.533 22.404 166.533 21.964C166.533 21.524 166.448 21.1537 166.28 20.853C166.111 20.545 165.887 20.314 165.609 20.16C165.33 20.006 165.029 19.929 164.707 19.929C164.384 19.929 164.083 20.006 163.805 20.16C163.533 20.314 163.317 20.545 163.156 20.853C162.994 21.1537 162.914 21.524 162.914 21.964C162.914 22.6167 163.079 23.1227 163.409 23.482C163.746 23.834 164.168 24.01 164.674 24.01ZM170.313 19.819C170.497 19.511 170.739 19.2727 171.039 19.104C171.347 18.928 171.71 18.84 172.128 18.84V20.138H171.809C171.318 20.138 170.944 20.2627 170.687 20.512C170.438 20.7613 170.313 21.194 170.313 21.81V25H169.059V18.939H170.313V19.819ZM178.77 18.939V25H177.516V24.285C177.318 24.5343 177.058 24.7323 176.735 24.879C176.42 25.0183 176.082 25.088 175.723 25.088C175.246 25.088 174.817 24.989 174.436 24.791C174.062 24.593 173.765 24.2997 173.545 23.911C173.332 23.5223 173.226 23.053 173.226 22.503V18.939H174.469V22.316C174.469 22.8587 174.605 23.2767 174.876 23.57C175.147 23.856 175.518 23.999 175.987 23.999C176.456 23.999 176.827 23.856 177.098 23.57C177.377 23.2767 177.516 22.8587 177.516 22.316V18.939H178.77ZM187.762 18.84C188.238 18.84 188.664 18.939 189.038 19.137C189.419 19.335 189.716 19.6283 189.929 20.017C190.149 20.4057 190.259 20.875 190.259 21.425V25H189.016V21.612C189.016 21.0693 188.88 20.655 188.609 20.369C188.337 20.0757 187.967 19.929 187.498 19.929C187.028 19.929 186.654 20.0757 186.376 20.369C186.104 20.655 185.969 21.0693 185.969 21.612V25H184.726V21.612C184.726 21.0693 184.59 20.655 184.319 20.369C184.047 20.0757 183.677 19.929 183.208 19.929C182.738 19.929 182.364 20.0757 182.086 20.369C181.814 20.655 181.679 21.0693 181.679 21.612V25H180.425V18.939H181.679V19.632C181.884 19.3827 182.144 19.1883 182.46 19.049C182.775 18.9097 183.112 18.84 183.472 18.84C183.956 18.84 184.388 18.9427 184.77 19.148C185.151 19.3533 185.444 19.6503 185.65 20.039C185.833 19.6723 186.119 19.3827 186.508 19.17C186.896 18.95 187.314 18.84 187.762 18.84Z" fill="#B7BFCC"/>
<path d="M30.75 27.75L27.3855 24.3795L30.75 27.75ZM29.25 19.875C29.25 21.5658 28.5784 23.1873 27.3828 24.3828C26.1873 25.5784 24.5658 26.25 22.875 26.25C21.1842 26.25 19.5627 25.5784 18.3672 24.3828C17.1716 23.1873 16.5 21.5658 16.5 19.875C16.5 18.1842 17.1716 16.5627 18.3672 15.3672C19.5627 14.1716 21.1842 13.5 22.875 13.5C24.5658 13.5 26.1873 14.1716 27.3828 15.3672C28.5784 16.5627 29.25 18.1842 29.25 19.875V19.875Z" stroke="#B555B7" stroke-width="2" stroke-linecap="round"/>
</svg>
